<?xml version="1.0" encoding="utf-8"?>
<!-- Generator: Adobe Illustrator 25.0.0, SVG Export Plug-In . SVG Version: 6.00 Build 0)  -->
<svg version="1.1" id="Layer_1" xmlns="http://www.w3.org/2000/svg" xmlns:xlink="http://www.w3.org/1999/xlink" x="0px" y="0px"
	 viewBox="0 0 166.3 50" style="enable-background:new 0 0 166.3 50;" xml:space="preserve">
<style type="text/css">
	.st0{fill:#072F75;}
	.st1{fill:url(#Path_38_1_);}
	.st2{fill:url(#Path_39_1_);}
	.st3{fill:url(#Path_40_1_);}
	.st4{fill:url(#Path_41_1_);}
	.st5{fill:url(#Path_42_1_);}
	.st6{fill:url(#Path_43_1_);}
	.st7{fill:url(#Path_44_1_);}
	.st8{fill:url(#Path_45_1_);}
	.st9{fill:url(#Path_46_1_);}
	.st10{fill:url(#Path_47_1_);}
	.st11{fill:url(#Path_48_1_);}
	.st12{fill:url(#Path_49_1_);}
	.st13{fill:url(#Path_50_1_);}
	.st14{fill:url(#Path_51_1_);}
	.st15{fill:url(#Path_52_1_);}
	.st16{fill:url(#Path_53_1_);}
	.st17{fill:url(#Path_54_1_);}
	.st18{fill:url(#Path_55_1_);}
	.st19{fill:url(#Path_56_1_);}
	.st20{fill:url(#Path_57_1_);}
	.st21{fill:url(#Path_58_1_);}
</style>
<g id="Group_3" transform="translate(-262.944 -595.445)">
	<g id="Group_1" transform="translate(328.376 608.304)">
		<path id="Path_1" class="st0" d="M9.6,0c3.9,0,6.2,2,6.2,5.7c0,2.4-0.9,4-2.7,4.9v0.1c2.3,0.7,3.5,2.5,3.5,5.4c0,3.8-2.7,6-6.7,6
			h-9C0.2,22.2,0,22,0,21.4V0.8C0,0.2,0.2,0,0.8,0L9.6,0z M9.2,2.8H3v6.7h6.2c2.3,0,3.5-1.1,3.5-3.3C12.7,3.9,11.5,2.8,9.2,2.8
			L9.2,2.8z M9.7,12.3H3v7.1h6.7c2.4,0,3.6-1.2,3.6-3.5C13.4,13.6,12.1,12.3,9.7,12.3L9.7,12.3z"/>
		<path id="Path_2" class="st0" d="M21.5,0.2c1.2,0,1.5,0.4,1.5,1.5v0.2c0,1.1-0.3,1.5-1.5,1.5h-0.2c-1.1,0-1.5-0.3-1.5-1.5V1.7
			c0-1.1,0.4-1.5,1.5-1.5H21.5z M22.1,6.1c0.6,0,0.8,0.2,0.8,0.8v14.6c0,0.6-0.2,0.7-0.8,0.7h-1.3c-0.6,0-0.7-0.2-0.7-0.7V6.8
			c0-0.6,0.2-0.8,0.7-0.8L22.1,6.1z"/>
		<path id="Path_3" class="st0" d="M26.6,11.6c0-3.7,2.6-6,7-6c4.5,0,7,2.2,7,6v5.1c0,3.7-2.6,6-7,6c-4.4,0-7-2.2-7-6V11.6z
			 M37.8,11.6c0-2.2-1.6-3.4-4.2-3.4c-2.6,0-4.2,1.3-4.2,3.4v5.1c0,2.2,1.6,3.4,4.2,3.4c2.7,0,4.2-1.3,4.2-3.4V11.6z"/>
		<path id="Path_4" class="st0" d="M65.2,0c0.6,0,0.8,0.2,0.8,0.8v20.5c0,0.6-0.2,0.8-0.8,0.8H64c-0.6,0-0.8-0.2-0.8-0.8V10.1
			c0-2,0.2-3.9,0.6-5.9h-0.2c-0.7,1.8-1.5,3.6-2.5,5.2l-4,7.1c-0.2,0.4-0.6,0.6-1,0.6h-0.8c-0.4,0-0.8-0.2-1-0.6l-4-7.1
			C49.4,7.8,48.7,6,48,4.2h-0.2c0.3,1.9,0.5,3.9,0.5,5.9v11.3c0,0.6-0.2,0.8-0.8,0.8h-1.2c-0.6,0-0.8-0.2-0.8-0.8V0.8
			c0-0.6,0.2-0.8,0.8-0.8h1.1c0.5-0.1,1,0.2,1.2,0.6l7.2,12.8l7.2-12.7c0.2-0.5,0.6-0.7,1.1-0.7L65.2,0z"/>
		<path id="Path_5" class="st0" d="M76.7,5.6c4.7,0,6.5,2.4,6.5,6.3V20c0,1.1-0.2,1.4-1.1,1.8c-1.7,0.6-3.5,0.9-5.4,0.8
			c-2.6,0-4.4-0.4-5.4-1.2c-1-1-1.6-2.3-1.5-3.7c0-3.6,1.9-4.9,7-4.9c1.2,0,2.4,0.1,3.6,0.2v-1.2c0-2.4-1-3.7-3.7-3.7
			c-1.5-0.1-3,0.6-3.9,1.9c-0.4,0.5-0.4,0.6-1,0.4l-1-0.4c-0.4-0.1-0.6-0.4-0.5-0.8c0-0.1,0.1-0.2,0.1-0.3
			C71.5,6.7,73.6,5.6,76.7,5.6z M80.4,15.3c-1.7-0.2-3-0.2-3.9-0.2c-2.9,0-3.8,0.8-3.8,2.6c0,1.8,0.9,2.6,3.8,2.6
			c1.2,0.1,2.3-0.1,3.5-0.4c0.3-0.1,0.5-0.4,0.5-0.7V15.3z"/>
		<path id="Path_6" class="st0" d="M94.3,5.6c4.3,0,6.5,2.1,6.5,6.3v4.4c0,4.2-2.2,6.4-6.7,6.4c-1.4-0.1-2.8-0.3-4.1-0.8v6.5
			c0,0.6-0.2,0.8-0.7,0.8h-1.3c-0.5,0-0.7-0.2-0.7-0.8v-20c0-1,0.2-1.4,1.2-1.8C90.4,5.8,92.4,5.5,94.3,5.6z M98,12
			c0-2.5-1.4-3.8-4.1-3.8c-1.1,0-2.2,0.2-3.3,0.5c-0.4,0.2-0.5,0.3-0.5,0.7v10c1.2,0.5,2.5,0.7,3.8,0.8c2.7,0,4.1-1.3,4.1-3.9L98,12
			z"/>
	</g>
	<g id="Group_25" transform="translate(0)">
		
			<linearGradient id="Path_38_1_" gradientUnits="userSpaceOnUse" x1="-93.955" y1="888.1124" x2="-127.197" y2="863.0264" gradientTransform="matrix(2.958 0 0 -2.9139 606.5092 3173.948)">
			<stop  offset="0" style="stop-color:#00FFA9"/>
			<stop  offset="1" style="stop-color:#0D4DFF"/>
		</linearGradient>
		<path id="Path_38" class="st1" d="M305.4,605.1l1-1.1l-0.4-1.5l-1.5-0.4l-1,1.1l0.4,1.5L305.4,605.1z"/>
		
			<linearGradient id="Path_39_1_" gradientUnits="userSpaceOnUse" x1="-64.9779" y1="854.8088" x2="-102.9379" y2="822.1928" gradientTransform="matrix(2.596 0 0 -2.244 493.0788 2498.5122)">
			<stop  offset="0" style="stop-color:#00FFA9"/>
			<stop  offset="1" style="stop-color:#0D4DFF"/>
		</linearGradient>
		<path id="Path_39" class="st2" d="M296.6,602.5l0.6-1.1l-0.6-1.1h-1.3l-0.6,1.1l0.6,1.1H296.6z"/>
		
			<linearGradient id="Path_40_1_" gradientUnits="userSpaceOnUse" x1="-77.4564" y1="855.6758" x2="-113.0965" y2="823.1208" gradientTransform="matrix(2.762 0 0 -2.244 533.234 2493.6824)">
			<stop  offset="0" style="stop-color:#00FFA9"/>
			<stop  offset="1" style="stop-color:#0D4DFF"/>
		</linearGradient>
		<path id="Path_40" class="st3" d="M287.7,597.7L287.7,597.7h1.3l0.6-1.1l-0.6-1.1h-0.2l0,0h-1.3l-0.6,1.1l0.6,1.1H287.7z"/>
		
			<linearGradient id="Path_41_1_" gradientUnits="userSpaceOnUse" x1="-137.9859" y1="916.6191" x2="-163.4519" y2="897.4011" gradientTransform="matrix(3.862 0 0 -3.805 861.9539 4074.3818)">
			<stop  offset="0" style="stop-color:#00FFA9"/>
			<stop  offset="1" style="stop-color:#0D4DFF"/>
		</linearGradient>
		<path id="Path_41" class="st4" d="M300.1,610.5l1.4-1.4l-0.6-1.9l-1.9-0.5l-1.4,1.4l0.6,1.9L300.1,610.5z"/>
		
			<linearGradient id="Path_42_1_" gradientUnits="userSpaceOnUse" x1="-130.4329" y1="903.9692" x2="-156.6829" y2="881.4132" gradientTransform="matrix(3.748 0 0 -3.246 829.278 3536.135)">
			<stop  offset="0" style="stop-color:#00FFA9"/>
			<stop  offset="1" style="stop-color:#0D4DFF"/>
		</linearGradient>
		<path id="Path_42" class="st5" d="M298.8,630.5l-0.9,1.6l0.9,1.6h1.9l0.9-1.6l-0.9-1.6H298.8z"/>
		
			<linearGradient id="Path_43_1_" gradientUnits="userSpaceOnUse" x1="-272.479" y1="995.9606" x2="-275.139" y2="993.9446" gradientTransform="matrix(36.985 0 0 -36.322 10408.3115 36764.0234)">
			<stop  offset="0" style="stop-color:#00FFA9"/>
			<stop  offset="1" style="stop-color:#0D4DFF"/>
		</linearGradient>
		<path id="Path_43" class="st6" d="M303,621.2l0.7,1.2h2.1l1-1.8l-1-1.8h-2.1l-0.7,1.2h-3.7l-0.7-1.2l2.3-2.2l1.1,0.3l1.3-1.3
			l-0.5-1.7l-1.7-0.5l-1.3,1.3l0.4,1.4l-2.4,2.3h-2l-0.9,1.6h-3.5l-1.2-2l2.5-2.2l2,0.9l2.1-1.5l-0.3-2.6l-2.4-1l-2.1,1.5l0.2,2.1
			l-2.9,2.6H289v-3.3h0.7l1.3-2.2l-1.1-1.9l2.4-2.3l1.4,0.3l1.3-1.4l-0.6-1.8l-1.9-0.4l-1.3,1.4l0.4,1.3l-2.6,2.5H289v-4h0.4l1-1.7
			l-1-1.7h-0.2l0,0h-2l-1,1.7l1,1.7h0.2l0,0h0.2v4h-0.1l-2.6-2.5l0.4-1.3l-1.3-1.4l-1.9,0.4l-0.6,1.8l1.3,1.4l1.4-0.3l2.4,2.3
			l-1.1,1.9l1.3,2.2h0.2l0,0h0.5v3.3h-0.3l-2.9-2.6l0.2-2.1l-2.1-1.5l-2.4,1l-0.3,2.6l2.1,1.5l2-0.9l2.5,2.2l-1.2,2h-3.5l-0.9-1.6
			h-2l-2.4-2.3l0.4-1.4l-1.3-1.3l-1.7,0.5l-0.5,1.7l1.3,1.3l1.1-0.3l2.3,2.2l-0.7,1.2h-3.7l-0.7-1.2h-2.1l-1,1.8l1,1.8h2.1l0.7-1.2
			h3.7l0.6,1.1l-2.3,2.4l-1.3-0.3l-1.3,1.4l0.5,1.8l1.8,0.4l1.3-1.4l-0.4-1.4l2.3-2.4h2.2l0.9-1.6h3.5l1.1,1.8l-2.4,2.2l-1.8-1
			l-2.2,1.3v2.6l2.2,1.3l2.2-1.3v-2.2l2.7-2.4h0.6v3.3h-0.7l-1.3,2.2l1.1,1.9l-2.5,2.2l-1.3-0.7l-1.6,1l0.1,1.9l1.6,0.9l1.6-1l0-1.3
			l2.9-2.6h0.1v4.1h-0.2l0,0h0l-0.9,1.6l0.9,1.6h1.9l0,0h0l0.9-1.6l-0.9-1.6H289v-4.1h0.1l2.9,2.5l0,1.3l1.6,1l1.6-0.9l0.1-1.9
			l-1.6-1l-1.3,0.7l-2.5-2.2l1.1-1.9l-1.3-2.2h-0.2l0,0H289v-3.3h0.6l2.7,2.4v2.2l2.2,1.3l2.2-1.3v-2.6l-2.2-1.3l-1.8,1l-2.4-2.2
			l1.1-1.8h3.5l0.9,1.6h2.2l2.3,2.4l-0.4,1.4l1.3,1.4l1.8-0.4l0.5-1.8l-1.3-1.4l-1.3,0.3l-2.3-2.4l0.6-1.1L303,621.2z"/>
		
			<linearGradient id="Path_44_1_" gradientUnits="userSpaceOnUse" x1="-49.3619" y1="872.9235" x2="-90.0919" y2="844.3444" gradientTransform="matrix(2.419 0 0 -2.562 453.1432 2829.2446)">
			<stop  offset="0" style="stop-color:#00FFA9"/>
			<stop  offset="1" style="stop-color:#0D4DFF"/>
		</linearGradient>
		<path id="Path_44" class="st7" d="M306.1,613.4l1.2,0.5l1-0.8l-0.2-1.3l-1.2-0.5l-1,0.8L306.1,613.4z"/>
		
			<linearGradient id="Path_45_1_" gradientUnits="userSpaceOnUse" x1="-98.2792" y1="876.8055" x2="-130.6032" y2="849.0315" gradientTransform="matrix(3.044 0 0 -2.636 638.3843 2911.5303)">
			<stop  offset="0" style="stop-color:#00FFA9"/>
			<stop  offset="1" style="stop-color:#0D4DFF"/>
		</linearGradient>
		<path id="Path_45" class="st8" d="M312.8,619.2h-1.5l-0.8,1.3l0.8,1.3h1.5l0.8-1.3L312.8,619.2z"/>
		
			<linearGradient id="Path_46_1_" gradientUnits="userSpaceOnUse" x1="-62.7719" y1="856.7048" x2="-100.7309" y2="824.0878" gradientTransform="matrix(2.596 0 0 -2.244 504.2208 2525.4153)">
			<stop  offset="0" style="stop-color:#00FFA9"/>
			<stop  offset="1" style="stop-color:#0D4DFF"/>
		</linearGradient>
		<path id="Path_46" class="st9" d="M306.5,627.2l-0.6,1.1l0.6,1.1h1.3l0.6-1.1l-0.6-1.1H306.5z"/>
		
			<linearGradient id="Path_47_1_" gradientUnits="userSpaceOnUse" x1="-60.5399" y1="858.6228" x2="-98.4989" y2="826.0058" gradientTransform="matrix(2.596 0 0 -2.244 502.0558 2534.5813)">
			<stop  offset="0" style="stop-color:#00FFA9"/>
			<stop  offset="1" style="stop-color:#0D4DFF"/>
		</linearGradient>
		<path id="Path_47" class="st10" d="M304.3,636.3l-0.6,1.1l0.6,1.1h1.3l0.6-1.1l-0.6-1.1H304.3z"/>
		
			<linearGradient id="Path_48_1_" gradientUnits="userSpaceOnUse" x1="-57.947" y1="860.8499" x2="-95.907" y2="828.2339" gradientTransform="matrix(2.596 0 0 -2.244 493.1178 2536.5981)">
			<stop  offset="0" style="stop-color:#00FFA9"/>
			<stop  offset="1" style="stop-color:#0D4DFF"/>
		</linearGradient>
		<path id="Path_48" class="st11" d="M295.4,638.4l-0.6,1.1l0.6,1.1h1.3l0.6-1.1l-0.6-1.1H295.4z"/>
		
			<linearGradient id="Path_49_1_" gradientUnits="userSpaceOnUse" x1="-86.6818" y1="893.6012" x2="-119.9248" y2="868.5142" gradientTransform="matrix(2.958 0 0 -2.9139 573.0762 3173.9529)">
			<stop  offset="0" style="stop-color:#00FFA9"/>
			<stop  offset="1" style="stop-color:#0D4DFF"/>
		</linearGradient>
		<path id="Path_49" class="st12" d="M272.6,604.7l0.4-1.5l-1-1.1l-1.5,0.4l-0.4,1.5l1,1.1L272.6,604.7z"/>
		
			<linearGradient id="Path_50_1_" gradientUnits="userSpaceOnUse" x1="-61.1297" y1="858.1156" x2="-99.0897" y2="825.4986" gradientTransform="matrix(2.596 0 0 -2.244 477.5898 2498.5164)">
			<stop  offset="0" style="stop-color:#00FFA9"/>
			<stop  offset="1" style="stop-color:#0D4DFF"/>
		</linearGradient>
		<path id="Path_50" class="st13" d="M281.2,602.5l0.6-1.1l-0.6-1.1h-1.3l-0.6,1.1l0.6,1.1H281.2z"/>
		
			<linearGradient id="Path_51_1_" gradientUnits="userSpaceOnUse" x1="-134.2902" y1="919.4639" x2="-159.7552" y2="900.2469" gradientTransform="matrix(3.864 0 0 -3.805 839.9071 4074.3838)">
			<stop  offset="0" style="stop-color:#00FFA9"/>
			<stop  offset="1" style="stop-color:#0D4DFF"/>
		</linearGradient>
		<path id="Path_51" class="st14" d="M278.3,610l0.6-1.9l-1.4-1.4l-1.9,0.5L275,609l1.4,1.4L278.3,610z"/>
		
			<linearGradient id="Path_52_1_" gradientUnits="userSpaceOnUse" x1="-126.4722" y1="907.3726" x2="-152.7222" y2="884.8165" gradientTransform="matrix(3.748 0 0 -3.246 806.2219 3536.1379)">
			<stop  offset="0" style="stop-color:#00FFA9"/>
			<stop  offset="1" style="stop-color:#0D4DFF"/>
		</linearGradient>
		<path id="Path_52" class="st15" d="M275.8,630.5l-0.9,1.6l0.9,1.6h1.9l0.9-1.6l-0.9-1.6H275.8z"/>
		
			<linearGradient id="Path_53_1_" gradientUnits="userSpaceOnUse" x1="-39.2971" y1="879.9857" x2="-80.0271" y2="851.4066" gradientTransform="matrix(2.419 0 0 -2.562 415.3822 2829.2495)">
			<stop  offset="0" style="stop-color:#00FFA9"/>
			<stop  offset="1" style="stop-color:#0D4DFF"/>
		</linearGradient>
		<path id="Path_53" class="st16" d="M270.4,613.4l0.2-1.3l-1-0.8l-1.2,0.5l-0.2,1.3l1,0.8L270.4,613.4z"/>
		
			<linearGradient id="Path_54_1_" gradientUnits="userSpaceOnUse" x1="-88.2162" y1="885.4515" x2="-120.5412" y2="857.6775" gradientTransform="matrix(3.044 0 0 -2.636 590.8083 2911.5342)">
			<stop  offset="0" style="stop-color:#00FFA9"/>
			<stop  offset="1" style="stop-color:#0D4DFF"/>
		</linearGradient>
		<path id="Path_54" class="st17" d="M263.7,619.2l-0.8,1.3l0.8,1.3h1.5l0.8-1.3l-0.8-1.3H263.7z"/>
		
			<linearGradient id="Path_55_1_" gradientUnits="userSpaceOnUse" x1="-53.3911" y1="864.765" x2="-91.3511" y2="832.148" gradientTransform="matrix(2.596 0 0 -2.244 466.4529 2525.4192)">
			<stop  offset="0" style="stop-color:#00FFA9"/>
			<stop  offset="1" style="stop-color:#0D4DFF"/>
		</linearGradient>
		<path id="Path_55" class="st18" d="M270,627.2h-1.3l-0.6,1.1l0.6,1.1h1.3l0.6-1.1L270,627.2z"/>
		
			<linearGradient id="Path_56_1_" gradientUnits="userSpaceOnUse" x1="-52.2349" y1="865.7578" x2="-90.1949" y2="833.1418" gradientTransform="matrix(2.596 0 0 -2.244 468.6228 2534.5862)">
			<stop  offset="0" style="stop-color:#00FFA9"/>
			<stop  offset="1" style="stop-color:#0D4DFF"/>
		</linearGradient>
		<path id="Path_56" class="st19" d="M270.9,636.3l-0.6,1.1l0.6,1.1h1.3l0.6-1.1l-0.6-1.1H270.9z"/>
		
			<linearGradient id="Path_57_1_" gradientUnits="userSpaceOnUse" x1="-54.0819" y1="864.1708" x2="-92.0419" y2="831.5548" gradientTransform="matrix(2.596 0 0 -2.244 477.5598 2536.6023)">
			<stop  offset="0" style="stop-color:#00FFA9"/>
			<stop  offset="1" style="stop-color:#0D4DFF"/>
		</linearGradient>
		<path id="Path_57" class="st20" d="M279.8,638.4l-0.6,1.1l0.6,1.1h1.3l0.6-1.1l-0.6-1.1H279.8z"/>
		
			<linearGradient id="Path_58_1_" gradientUnits="userSpaceOnUse" x1="-69.1693" y1="863.2457" x2="-104.8093" y2="830.6907" gradientTransform="matrix(2.762 0 0 -2.244 533.231 2541.4412)">
			<stop  offset="0" style="stop-color:#00FFA9"/>
			<stop  offset="1" style="stop-color:#0D4DFF"/>
		</linearGradient>
		<path id="Path_58" class="st21" d="M288.8,643.2L288.8,643.2h-1.3l-0.6,1.1l0.6,1.1h0.2l0,0h1.3l0.6-1.1l-0.6-1.1H288.8z"/>
	</g>
</g>
</svg>
